<svg width="696" height="261" viewBox="0 0 696 261" fill="none" xmlns="http://www.w3.org/2000/svg">
<g clip-path="url(#clip0_53_23)">
<path d="M19.9718 230.387C22.4168 231.246 25.0419 231.462 27.5942 231.012C30.1465 230.562 32.54 229.462 34.5442 227.819C39.6481 223.533 41.2487 216.474 42.5504 209.936L46.4016 190.599L38.3387 196.153C32.54 200.147 26.611 204.269 22.5964 210.055C18.5817 215.84 16.8303 223.738 20.055 229.998" fill="#0ABF7F"/>
<path d="M21.2168 255.145C20.202 247.748 19.1578 240.256 19.8714 232.78C20.5037 226.141 22.5286 219.657 26.6509 214.338C28.8389 211.521 31.5015 209.107 34.5187 207.206C35.3053 206.709 36.0294 207.956 35.2462 208.451C30.0254 211.751 25.9873 216.625 23.714 222.37C21.2033 228.758 20.8002 235.722 21.2327 242.508C21.4941 246.612 22.0495 250.689 22.6074 254.761C22.6514 254.945 22.6239 255.139 22.5305 255.304C22.437 255.468 22.2845 255.591 22.1038 255.648C21.9195 255.697 21.7231 255.672 21.5571 255.578C21.3911 255.484 21.269 255.328 21.2173 255.144L21.2168 255.145Z" fill="#59789E"/>
<path d="M28.5215 243.276C29.5699 244.871 31.0112 246.169 32.7066 247.044C34.4019 247.92 36.2941 248.344 38.2008 248.276C43.102 248.043 47.1863 244.622 50.8627 241.374L61.739 231.767L54.541 231.422C49.3645 231.174 44.0544 230.941 39.1239 232.54C34.1934 234.139 29.6464 237.981 28.745 243.086" fill="#0ABF7F"/>
<path d="M18.3482 259.397C23.234 250.748 28.9006 241.137 39.0269 238.064C41.8422 237.213 44.7942 236.908 47.724 237.166C48.6476 237.246 48.4169 238.67 47.4953 238.59C42.5841 238.182 37.6824 239.48 33.6154 242.264C29.7921 245.039 26.5507 248.538 24.0754 252.563C22.4954 254.97 21.0804 257.479 19.6653 259.984C19.2131 260.785 17.8908 260.207 18.3482 259.397Z" fill="#59789E"/>
<path d="M466.884 219.082C470.251 220.266 473.865 220.562 477.38 219.943C480.895 219.324 484.191 217.809 486.951 215.546C493.979 209.644 496.183 199.923 497.976 190.921L503.279 164.291L492.176 171.94C484.191 177.44 476.026 183.117 470.498 191.084C464.969 199.05 462.558 209.926 466.998 218.547" fill="#0ABF7F"/>
<path d="M468.598 253.175C467.201 242.99 465.763 232.673 466.745 222.378C467.616 213.235 470.405 204.306 476.081 196.982C479.094 193.103 482.761 189.779 486.916 187.16C487.999 186.476 488.996 188.193 487.917 188.875C480.728 193.42 475.167 200.132 472.037 208.042C468.58 216.839 468.024 226.429 468.62 235.774C468.98 241.425 469.745 247.039 470.513 252.647C470.574 252.9 470.536 253.167 470.407 253.394C470.278 253.621 470.068 253.79 469.82 253.868C469.566 253.936 469.295 253.902 469.067 253.772C468.838 253.642 468.67 253.427 468.599 253.174L468.598 253.175Z" fill="#59789E"/>
<path d="M478.657 236.832C480.101 239.028 482.086 240.815 484.42 242.02C486.755 243.226 489.36 243.81 491.986 243.716C498.735 243.396 504.36 238.685 509.422 234.212L524.4 220.982L514.488 220.508C507.359 220.166 500.047 219.846 493.257 222.047C486.468 224.249 480.206 229.54 478.965 236.57" fill="#0ABF7F"/>
<path d="M464.648 259.031C471.376 247.121 479.179 233.885 493.124 229.655C497 228.482 501.066 228.063 505.1 228.417C506.372 228.527 506.054 230.488 504.785 230.379C498.022 229.817 491.272 231.604 485.672 235.438C480.282 239.108 476.086 244.21 472.534 249.62C470.359 252.935 468.41 256.389 466.461 259.839C465.839 260.942 464.018 260.146 464.648 259.031Z" fill="#59789E"/>
<path d="M403.825 39.8852C403.116 39.5761 402.544 39.0167 402.22 38.3137C401.896 37.6106 401.842 36.8129 402.068 36.0724C402.104 35.9588 402.127 35.8414 402.137 35.7225C402.157 35.3832 402.068 35.0463 401.882 34.7616C401.697 34.477 401.424 34.2598 401.105 34.1422C400.787 34.0245 400.438 34.0127 400.112 34.1085C399.786 34.2043 399.5 34.4026 399.295 34.674C399.225 34.7703 399.166 34.8746 399.121 34.9846C398.811 35.6944 398.252 36.2658 397.55 36.5899C396.847 36.9141 396.049 36.9684 395.309 36.7425C395.196 36.7059 395.078 36.6829 394.959 36.6739C394.62 36.6533 394.284 36.7424 393.999 36.9282C393.715 37.114 393.497 37.3865 393.38 37.7054C393.262 38.0243 393.25 38.3726 393.346 38.6988C393.442 39.0249 393.64 39.3115 393.911 39.5161C394.008 39.5865 394.112 39.6452 394.222 39.6911C394.931 40.0003 395.503 40.5596 395.827 41.2627C396.151 41.9658 396.205 42.7635 395.979 43.504C395.943 43.6175 395.92 43.735 395.911 43.8539C395.89 44.1932 395.979 44.5301 396.165 44.8147C396.35 45.0993 396.623 45.3165 396.942 45.4342C397.26 45.5518 397.609 45.5636 397.935 45.4678C398.261 45.372 398.547 45.1737 398.752 44.9023C398.822 44.806 398.881 44.7018 398.927 44.5917C399.236 43.8819 399.795 43.3106 400.497 42.9864C401.2 42.6623 401.998 42.6079 402.738 42.8338C402.851 42.8704 402.969 42.8934 403.088 42.9024C403.427 42.9231 403.763 42.8339 404.048 42.6481C404.332 42.4623 404.55 42.1898 404.667 41.8709C404.785 41.552 404.797 41.2037 404.701 40.8776C404.605 40.5515 404.407 40.2648 404.136 40.0602C404.039 39.9899 403.935 39.9311 403.825 39.8852Z" fill="#CBCBCB"/>
<path d="M463.899 179.829C463.19 179.52 462.618 178.961 462.294 178.258C461.97 177.555 461.916 176.757 462.142 176.016C462.178 175.903 462.201 175.785 462.21 175.667C462.231 175.327 462.142 174.99 461.956 174.706C461.771 174.421 461.498 174.204 461.179 174.086C460.861 173.969 460.512 173.957 460.186 174.053C459.86 174.148 459.574 174.347 459.369 174.618C459.299 174.714 459.24 174.819 459.194 174.929C458.885 175.638 458.326 176.21 457.624 176.534C456.921 176.858 456.123 176.912 455.383 176.687C455.27 176.65 455.152 176.627 455.033 176.618C454.694 176.597 454.358 176.687 454.073 176.872C453.789 177.058 453.571 177.331 453.454 177.65C453.336 177.968 453.324 178.317 453.42 178.643C453.516 178.969 453.714 179.256 453.985 179.46C454.082 179.531 454.186 179.589 454.296 179.635C455.005 179.944 455.577 180.504 455.901 181.207C456.225 181.91 456.279 182.708 456.053 183.448C456.017 183.562 455.994 183.679 455.985 183.798C455.964 184.137 456.053 184.474 456.239 184.759C456.424 185.043 456.697 185.261 457.016 185.378C457.334 185.496 457.683 185.508 458.009 185.412C458.335 185.316 458.621 185.118 458.826 184.846C458.896 184.75 458.955 184.646 459.001 184.536C459.31 183.826 459.869 183.255 460.571 182.93C461.274 182.606 462.072 182.552 462.812 182.778C462.925 182.814 463.043 182.837 463.162 182.846C463.501 182.867 463.837 182.778 464.122 182.592C464.406 182.406 464.624 182.134 464.741 181.815C464.859 181.496 464.871 181.148 464.775 180.822C464.679 180.496 464.481 180.209 464.21 180.004C464.113 179.934 464.009 179.875 463.899 179.829Z" fill="#F1F1F1"/>
<path d="M148.94 98.2668C148.23 97.9576 147.659 97.3983 147.335 96.6952C147.011 95.9922 146.957 95.1944 147.183 94.4539C147.219 94.3404 147.242 94.223 147.251 94.104C147.272 93.7648 147.183 93.4279 146.997 93.1432C146.811 92.8586 146.539 92.6414 146.22 92.5237C145.901 92.4061 145.553 92.3943 145.227 92.4901C144.901 92.5859 144.615 92.7842 144.41 93.0556C144.34 93.1519 144.281 93.2561 144.235 93.3662C143.926 94.076 143.367 94.6474 142.664 94.9715C141.962 95.2956 141.164 95.3499 140.424 95.1241C140.31 95.0875 140.193 95.0645 140.074 95.0555C139.735 95.0348 139.398 95.124 139.114 95.3098C138.829 95.4956 138.612 95.7681 138.495 96.087C138.377 96.4059 138.365 96.7542 138.461 97.0803C138.557 97.4065 138.755 97.693 139.026 97.8977C139.122 97.968 139.227 98.0268 139.337 98.0727C140.046 98.3819 140.617 98.9412 140.941 99.6443C141.265 100.347 141.32 101.145 141.094 101.886C141.057 101.999 141.034 102.117 141.025 102.235C141.005 102.575 141.094 102.912 141.279 103.196C141.465 103.481 141.738 103.698 142.056 103.816C142.375 103.933 142.723 103.945 143.049 103.849C143.375 103.754 143.662 103.555 143.866 103.284C143.937 103.188 143.995 103.083 144.041 102.973C144.35 102.263 144.909 101.692 145.612 101.368C146.315 101.044 147.112 100.99 147.853 101.215C147.966 101.252 148.083 101.275 148.202 101.284C148.541 101.305 148.878 101.215 149.163 101.03C149.447 100.844 149.664 100.571 149.782 100.252C149.9 99.9336 149.911 99.5853 149.816 99.2592C149.72 98.933 149.522 98.6464 149.25 98.4418C149.154 98.3714 149.05 98.3127 148.94 98.2668Z" fill="#F1F1F1"/>
<path d="M280.334 48.079C283.178 48.079 285.483 45.7726 285.483 42.9276C285.483 40.0826 283.178 37.7763 280.334 37.7763C277.49 37.7763 275.185 40.0826 275.185 42.9276C275.185 45.7726 277.49 48.079 280.334 48.079Z" fill="#F1F1F1"/>
<path d="M554.958 34.3421C557.802 34.3421 560.107 32.0358 560.107 29.1908C560.107 26.3458 557.802 24.0395 554.958 24.0395C552.114 24.0395 549.809 26.3458 549.809 29.1908C549.809 32.0358 552.114 34.3421 554.958 34.3421Z" fill="#008CD2"/>
<path d="M155.037 10.3026C157.881 10.3026 160.186 7.99631 160.186 5.15132C160.186 2.30632 157.881 0 155.037 0C152.193 0 149.888 2.30632 149.888 5.15132C149.888 7.99631 152.193 10.3026 155.037 10.3026Z" fill="#CBCBCB"/>
<path d="M135.235 244.422C155.648 244.422 172.195 227.867 172.195 207.446C172.195 187.025 155.648 170.471 135.235 170.471C114.822 170.471 98.2747 187.025 98.2747 207.446C98.2747 227.867 114.822 244.422 135.235 244.422Z" fill="#2F2E41"/>
<path d="M129.621 236.465H118.392V256.591H129.621V236.465Z" fill="#2F2E41"/>
<path d="M152.078 236.465H140.849V256.591H152.078V236.465Z" fill="#2F2E41"/>
<path d="M127.749 260.336C132.917 260.336 137.106 258.764 137.106 256.825C137.106 254.886 132.917 253.315 127.749 253.315C122.582 253.315 118.392 254.886 118.392 256.825C118.392 258.764 122.582 260.336 127.749 260.336Z" fill="#2F2E41"/>
<path d="M150.206 259.868C155.374 259.868 159.563 258.296 159.563 256.357C159.563 254.418 155.374 252.847 150.206 252.847C145.039 252.847 140.849 254.418 140.849 256.357C140.849 258.296 145.039 259.868 150.206 259.868Z" fill="#2F2E41"/>
<path d="M175.064 191.289C183.068 183.275 187.518 174.741 185.004 172.227C182.489 169.713 173.961 174.171 165.957 182.185C157.952 190.199 153.502 198.734 156.017 201.248C158.532 203.761 167.059 199.303 175.064 191.289Z" fill="#2F2E41"/>
<path d="M105.444 203.823C107.959 201.309 103.508 192.775 95.5039 184.761C87.4995 176.747 78.972 172.289 76.4572 174.802C73.9425 177.316 78.3927 185.851 86.3971 193.865C94.4016 201.878 102.929 206.337 105.444 203.823Z" fill="#2F2E41"/>
<path d="M133.68 214.844C140.656 214.844 146.312 209.186 146.312 202.206C146.312 195.227 140.656 189.569 133.68 189.569C126.704 189.569 121.048 195.227 121.048 202.206C121.048 209.186 126.704 214.844 133.68 214.844Z" fill="white"/>
<path d="M133.68 206.419C136.006 206.419 137.891 204.533 137.891 202.207C137.891 199.88 136.006 197.994 133.68 197.994C131.354 197.994 129.469 199.88 129.469 202.207C129.469 204.533 131.354 206.419 133.68 206.419Z" fill="#3F3D56"/>
<path d="M143.708 225.578C144.098 227.723 143.621 229.935 142.381 231.727C141.141 233.519 139.24 234.746 137.097 235.136C134.953 235.526 132.742 235.049 130.951 233.809C129.159 232.568 127.933 230.667 127.543 228.522L127.54 228.506C126.732 224.04 130.184 222.46 134.648 221.651C139.113 220.843 142.9 221.112 143.708 225.578Z" fill="white"/>
<path d="M171.477 246.253C170.645 246.254 169.847 246.585 169.259 247.174C168.671 247.762 168.34 248.56 168.339 249.392V255.949C168.34 256.781 168.671 257.579 169.259 258.168C169.847 258.756 170.645 259.087 171.477 259.088H221.965C222.797 259.087 223.594 258.756 224.182 258.168C224.771 257.579 225.102 256.782 225.103 255.949V249.392C225.102 248.56 224.771 247.762 224.182 247.174C223.594 246.585 222.797 246.254 221.965 246.253H171.477Z" fill="#314158"/>
<path d="M200.512 241.886C200.199 241.706 199.828 241.657 199.479 241.75C199.13 241.844 198.833 242.072 198.653 242.385L196.776 245.636L194.938 242C194.775 241.678 194.491 241.434 194.148 241.321C193.805 241.209 193.431 241.237 193.109 241.4C192.787 241.563 192.543 241.848 192.431 242.191C192.318 242.534 192.347 242.907 192.51 243.229L193.94 246.059H193.416V259.283H200.414V246.059H199.675L201.01 243.746C201.19 243.433 201.239 243.062 201.146 242.713C201.052 242.364 200.824 242.067 200.512 241.886Z" fill="#008CD2"/>
<path d="M134.283 183.194C127.716 183.187 121.188 182.189 114.918 180.234C114.482 180.093 114.102 179.819 113.832 179.449C113.562 179.079 113.416 178.634 113.414 178.176V163.125C113.415 162.556 113.641 162.01 114.043 161.608C114.446 161.206 114.991 160.979 115.56 160.979H153.321C153.889 160.979 154.435 161.206 154.837 161.608C155.239 162.01 155.465 162.556 155.466 163.125V178.167C155.466 178.629 155.318 179.078 155.043 179.449C154.768 179.82 154.381 180.093 153.94 180.227C147.568 182.174 140.945 183.174 134.283 183.194Z" fill="#008CD2"/>
<path opacity="0.2" d="M155.037 163.125V165.641L134.603 172.809C134.221 172.941 133.805 172.935 133.427 172.792L113.843 165.435V163.125C113.845 162.67 114.026 162.234 114.348 161.912C114.669 161.591 115.105 161.409 115.56 161.408H153.321C153.775 161.409 154.211 161.591 154.533 161.912C154.854 162.234 155.036 162.67 155.037 163.125Z" fill="black"/>
<path d="M134.031 169.9C133.774 169.901 133.519 169.854 133.277 169.764L104.012 158.771C103.598 158.615 103.242 158.336 102.993 157.97C102.744 157.605 102.614 157.172 102.621 156.729C102.627 156.287 102.77 155.858 103.03 155.5C103.29 155.142 103.653 154.873 104.072 154.73L131.607 145.306C132.052 145.156 132.534 145.153 132.98 145.3L163.712 155.549C164.137 155.69 164.506 155.961 164.769 156.323C165.033 156.686 165.176 157.121 165.179 157.569C165.183 158.016 165.046 158.454 164.789 158.82C164.531 159.186 164.166 159.463 163.743 159.611L134.741 169.78C134.513 169.86 134.273 169.901 134.031 169.9Z" fill="#008CD2"/>
<path d="M107.407 169.135H106.549V156.686H132.724V157.544H107.407V169.135Z" fill="#3F3D56"/>
<path d="M106.978 171.711C107.926 171.711 108.694 170.942 108.694 169.993C108.694 169.045 107.926 168.276 106.978 168.276C106.03 168.276 105.261 169.045 105.261 169.993C105.261 170.942 106.03 171.711 106.978 171.711Z" fill="#3F3D56"/>
<path d="M348.927 244.422C369.339 244.422 385.887 227.867 385.887 207.446C385.887 187.025 369.339 170.471 348.927 170.471C328.514 170.471 311.966 187.025 311.966 207.446C311.966 227.867 328.514 244.422 348.927 244.422Z" fill="#2F2E41"/>
<path d="M343.313 236.465H332.084V256.591H343.313V236.465Z" fill="#2F2E41"/>
<path d="M365.769 236.465H354.541V256.591H365.769V236.465Z" fill="#2F2E41"/>
<path d="M341.441 260.336C346.609 260.336 350.798 258.764 350.798 256.825C350.798 254.886 346.609 253.315 341.441 253.315C336.273 253.315 332.084 254.886 332.084 256.825C332.084 258.764 336.273 260.336 341.441 260.336Z" fill="#2F2E41"/>
<path d="M363.898 259.868C369.066 259.868 373.255 258.296 373.255 256.357C373.255 254.418 369.066 252.847 363.898 252.847C358.73 252.847 354.541 254.418 354.541 256.357C354.541 258.296 358.73 259.868 363.898 259.868Z" fill="#2F2E41"/>
<path d="M388.755 191.289C396.76 183.275 401.21 174.741 398.695 172.227C396.18 169.713 387.653 174.171 379.649 182.185C371.644 190.199 367.194 198.734 369.709 201.247C372.223 203.761 380.751 199.303 388.755 191.289Z" fill="#2F2E41"/>
<path d="M315.937 225.611C322.396 216.305 325.265 207.117 322.345 205.088C319.424 203.06 311.821 208.959 305.362 218.265C298.904 227.571 296.035 236.759 298.955 238.787C301.875 240.816 309.478 234.916 315.937 225.611Z" fill="#2F2E41"/>
<path d="M347.372 214.844C354.348 214.844 360.004 209.186 360.004 202.206C360.004 195.227 354.348 189.569 347.372 189.569C340.395 189.569 334.74 195.227 334.74 202.206C334.74 209.186 340.395 214.844 347.372 214.844Z" fill="white"/>
<path d="M351.663 202.126C353.988 202.126 355.873 200.24 355.873 197.914C355.873 195.587 353.988 193.701 351.663 193.701C349.337 193.701 347.452 195.587 347.452 197.914C347.452 200.24 349.337 202.126 351.663 202.126Z" fill="#3F3D56"/>
<path d="M362.517 225.578C363.756 230.044 359.242 234.323 352.435 235.136C345.628 235.949 339.105 232.988 337.866 228.522L337.861 228.506C336.629 224.04 341.893 222.46 348.701 221.651C355.51 220.843 361.284 221.112 362.517 225.578Z" fill="white"/>
<path d="M335.995 185.685C329.899 188.129 323.47 189.64 316.924 190.166C316.467 190.198 316.012 190.085 315.624 189.843C315.235 189.601 314.933 189.242 314.761 188.818L309.148 174.854C308.937 174.325 308.943 173.735 309.166 173.211C309.39 172.688 309.811 172.274 310.339 172.061L345.373 157.968C345.901 157.757 346.492 157.763 347.015 157.986C347.538 158.21 347.951 158.631 348.164 159.159L353.774 173.115C353.946 173.543 353.976 174.016 353.859 174.463C353.743 174.909 353.485 175.307 353.125 175.596C347.94 179.781 342.168 183.18 335.995 185.685Z" fill="#008CD2"/>
<path opacity="0.2" d="M347.766 159.319L348.704 161.653L332.419 175.931C332.114 176.196 331.726 176.345 331.322 176.354L310.408 176.836L309.546 174.693C309.378 174.271 309.384 173.799 309.562 173.38C309.74 172.962 310.077 172.631 310.499 172.46L345.533 158.367C345.956 158.198 346.428 158.204 346.846 158.382C347.264 158.561 347.595 158.898 347.766 159.319Z" fill="black"/>
<path d="M330.804 173.445C330.565 173.541 330.311 173.594 330.053 173.6L298.801 174.323C298.359 174.333 297.925 174.206 297.558 173.96C297.19 173.714 296.908 173.361 296.749 172.948C296.59 172.535 296.563 172.084 296.67 171.655C296.778 171.226 297.015 170.841 297.35 170.552L319.383 151.531C319.74 151.225 320.186 151.044 320.655 151.014L352.99 149.052C353.436 149.025 353.88 149.139 354.26 149.376C354.639 149.614 354.934 149.965 355.104 150.379C355.274 150.793 355.311 151.25 355.208 151.686C355.106 152.121 354.87 152.514 354.533 152.809L331.417 173.069C331.235 173.228 331.028 173.355 330.804 173.445Z" fill="#008CD2"/>
<path d="M305.816 182.672L305.02 182.992L300.378 171.442L324.663 161.672L324.983 162.469L301.493 171.918L305.816 182.672Z" fill="#3F3D56"/>
<path d="M305.738 185.345C306.686 185.345 307.454 184.577 307.454 183.628C307.454 182.68 306.686 181.911 305.738 181.911C304.79 181.911 304.021 182.68 304.021 183.628C304.021 184.577 304.79 185.345 305.738 185.345Z" fill="#3F3D56"/>
<path d="M489.635 120.085C484.064 116.607 479.049 112.308 474.76 107.333C474.464 106.983 474.287 106.549 474.253 106.092C474.219 105.636 474.33 105.18 474.57 104.79L482.522 92.0138C482.823 91.531 483.304 91.1876 483.858 91.0586C484.412 90.9297 484.994 91.0259 485.477 91.3261L517.533 111.293C518.015 111.594 518.359 112.074 518.488 112.629C518.616 113.183 518.52 113.766 518.22 114.249L510.273 127.018C510.029 127.41 509.666 127.714 509.237 127.883C508.807 128.053 508.335 128.08 507.889 127.96C501.451 126.244 495.301 123.591 489.635 120.085Z" fill="#008CD2"/>
<path opacity="0.2" d="M517.856 114.022L516.527 116.158L495.393 111.439C494.999 111.349 494.649 111.124 494.404 110.803L481.666 94.2012L482.886 92.2406C483.128 91.8551 483.512 91.5808 483.955 91.4778C484.398 91.3747 484.864 91.4512 485.251 91.6906L517.306 111.657C517.691 111.899 517.966 112.283 518.069 112.726C518.172 113.169 518.095 113.635 517.856 114.022Z" fill="black"/>
<path d="M496.445 108.667C496.226 108.531 496.033 108.357 495.876 108.153L476.841 83.3456C476.572 82.9948 476.418 82.5695 476.399 82.1277C476.381 81.6859 476.499 81.2492 476.739 80.8773C476.978 80.5054 477.326 80.2165 477.735 80.0501C478.145 79.8836 478.596 79.8477 479.026 79.9473L507.38 86.507C507.838 86.6143 508.248 86.8673 508.549 87.2279L529.223 112.178C529.509 112.523 529.679 112.948 529.711 113.394C529.743 113.841 529.635 114.286 529.401 114.668C529.168 115.05 528.821 115.349 528.409 115.524C527.997 115.699 527.54 115.74 527.104 115.643L497.11 108.94C496.875 108.887 496.65 108.795 496.445 108.667Z" fill="#008CD2"/>
<path d="M474.247 93.9394L473.519 93.4852L480.096 82.9173L502.316 96.758L501.862 97.4861L480.37 84.0995L474.247 93.9394Z" fill="#3F3D56"/>
<path d="M473.429 96.1581C474.377 96.1581 475.146 95.3893 475.146 94.441C475.146 93.4927 474.377 92.7239 473.429 92.7239C472.481 92.7239 471.713 93.4927 471.713 94.441C471.713 95.3893 472.481 96.1581 473.429 96.1581Z" fill="#3F3D56"/>
<path d="M579.051 202.353C599.464 202.353 616.011 185.798 616.011 165.377C616.011 144.956 599.464 128.402 579.051 128.402C558.638 128.402 542.091 144.956 542.091 165.377C542.091 185.798 558.638 202.353 579.051 202.353Z" fill="#2F2E41"/>
<path d="M604.674 184.55L595.093 190.407L605.584 207.58L615.165 201.722L604.674 184.55Z" fill="#2F2E41"/>
<path d="M585.512 196.265L575.931 202.123L586.422 219.296L596.003 213.438L585.512 196.265Z" fill="#2F2E41"/>
<path d="M609.133 209.799C613.542 207.103 616.298 203.576 615.287 201.922C614.276 200.268 609.883 201.112 605.473 203.808C601.064 206.504 598.308 210.031 599.319 211.685C600.329 213.339 604.723 212.495 609.133 209.799Z" fill="#2F2E41"/>
<path d="M589.727 221.115C594.136 218.419 596.892 214.892 595.881 213.238C594.871 211.584 590.477 212.428 586.067 215.124C581.658 217.82 578.902 221.347 579.913 223.001C580.924 224.655 585.317 223.811 589.727 221.115Z" fill="#2F2E41"/>
<path d="M558.269 159.179C560.784 156.665 556.334 148.13 548.329 140.116C540.325 132.103 531.797 127.644 529.283 130.158C526.768 132.672 531.218 141.206 539.223 149.22C547.227 157.234 555.754 161.692 558.269 159.179Z" fill="#2F2E41"/>
<path d="M629.023 196.718C631.943 194.69 629.074 185.501 622.616 176.196C616.157 166.89 608.554 160.991 605.633 163.019C602.713 165.048 605.582 174.236 612.041 183.542C618.5 192.847 626.103 198.746 629.023 196.718Z" fill="#2F2E41"/>
<path d="M567.733 167.623C574.71 167.623 580.365 161.965 580.365 154.986C580.365 148.007 574.71 142.349 567.733 142.349C560.757 142.349 555.101 148.007 555.101 154.986C555.101 161.965 560.757 167.623 567.733 167.623Z" fill="white"/>
<path d="M563.442 154.906C565.768 154.906 567.653 153.02 567.653 150.693C567.653 148.367 565.768 146.481 563.442 146.481C561.117 146.481 559.231 148.367 559.231 150.693C559.231 153.02 561.117 154.906 563.442 154.906Z" fill="#3F3D56"/>
<path d="M551.467 176.066C549.071 179.992 552.263 185.304 558.595 187.93C564.927 190.556 572.003 189.502 574.398 185.576L574.406 185.562C576.796 181.633 572.155 178.694 565.82 176.072C559.486 173.449 553.856 172.138 551.467 176.066Z" fill="white"/>
<path d="M566.649 118.95C569.95 105.654 584.518 97.8289 599.188 101.473C613.858 105.117 623.075 118.851 619.775 132.147C616.475 145.443 605.525 145.486 590.855 141.842C576.185 138.198 563.349 132.246 566.649 118.95Z" fill="#0ABF7F"/>
<path d="M695.142 261H0.8582C0.630591 261 0.412304 260.91 0.25136 260.749C0.0904166 260.588 0 260.369 0 260.141C0 259.914 0.0904166 259.695 0.25136 259.534C0.412304 259.373 0.630591 259.283 0.8582 259.283H695.142C695.369 259.283 695.588 259.373 695.749 259.534C695.91 259.695 696 259.914 696 260.141C696 260.369 695.91 260.588 695.749 260.749C695.588 260.91 695.369 261 695.142 261Z" fill="#CBCBCB"/>
</g>
<defs>
<clipPath id="clip0_53_23">
<rect width="696" height="261" fill="white"/>
</clipPath>
</defs>
</svg>
